<?xml version="1.0" encoding="UTF-8"?>
<svg width="957px" height="100px" xmlns="http://www.w3.org/2000/svg">
    <rect width="957" height="100" fill="white"/>
    <rect x="30" width="6" height="100"/>
    <rect x="39" width="3" height="100"/>
    <rect x="48" width="9" height="100"/>
    <rect x="63" width="12" height="100"/>
    <rect x="78" width="3" height="100"/>
    <rect x="90" width="3" height="100"/>
    <rect x="96" width="3" height="100"/>
    <rect x="105" width="6" height="100"/>
    <rect x="114" width="3" height="100"/>
    <rect x="129" width="3" height="100"/>
    <rect x="138" width="3" height="100"/>
    <rect x="153" width="6" height="100"/>
    <rect x="162" width="3" height="100"/>
    <rect x="174" width="6" height="100"/>
    <rect x="183" width="3" height="100"/>
    <rect x="195" width="3" height="100"/>
    <rect x="201" width="3" height="100"/>
    <rect x="213" width="6" height="100"/>
    <rect x="228" width="3" height="100"/>
    <rect x="234" width="12" height="100"/>
    <rect x="249" width="9" height="100"/>
    <rect x="261" width="3" height="100"/>
    <rect x="267" width="6" height="100"/>
    <rect x="279" width="9" height="100"/>
    <rect x="294" width="3" height="100"/>
    <rect x="300" width="9" height="100"/>
    <rect x="312" width="12" height="100"/>
    <rect x="327" width="6" height="100"/>
    <rect x="342" width="6" height="100"/>
    <rect x="351" width="6" height="100"/>
    <rect x="360" width="6" height="100"/>
    <rect x="372" width="3" height="100"/>
    <rect x="384" width="3" height="100"/>
    <rect x="393" width="6" height="100"/>
    <rect x="405" width="3" height="100"/>
    <rect x="414" width="3" height="100"/>
    <rect x="426" width="3" height="100"/>
    <rect x="432" width="12" height="100"/>
    <rect x="447" width="9" height="100"/>
    <rect x="459" width="6" height="100"/>
    <rect x="471" width="3" height="100"/>
    <rect x="477" width="9" height="100"/>
    <rect x="492" width="3" height="100"/>
    <rect x="498" width="6" height="100"/>
    <rect x="510" width="9" height="100"/>
    <rect x="525" width="3" height="100"/>
    <rect x="531" width="9" height="100"/>
    <rect x="543" width="6" height="100"/>
    <rect x="558" width="6" height="100"/>
    <rect x="573" width="3" height="100"/>
    <rect x="579" width="9" height="100"/>
    <rect x="591" width="6" height="100"/>
    <rect x="600" width="9" height="100"/>
    <rect x="612" width="3" height="100"/>
    <rect x="624" width="3" height="100"/>
    <rect x="633" width="6" height="100"/>
    <rect x="645" width="9" height="100"/>
    <rect x="657" width="6" height="100"/>
    <rect x="666" width="6" height="100"/>
    <rect x="678" width="6" height="100"/>
    <rect x="690" width="3" height="100"/>
    <rect x="696" width="3" height="100"/>
    <rect x="708" width="6" height="100"/>
    <rect x="723" width="3" height="100"/>
    <rect x="729" width="9" height="100"/>
    <rect x="747" width="6" height="100"/>
    <rect x="756" width="6" height="100"/>
    <rect x="765" width="3" height="100"/>
    <rect x="777" width="3" height="100"/>
    <rect x="789" width="3" height="100"/>
    <rect x="795" width="9" height="100"/>
    <rect x="807" width="6" height="100"/>
    <rect x="822" width="3" height="100"/>
    <rect x="834" width="9" height="100"/>
    <rect x="846" width="6" height="100"/>
    <rect x="855" width="3" height="100"/>
    <rect x="861" width="6" height="100"/>
    <rect x="876" width="3" height="100"/>
    <rect x="888" width="6" height="100"/>
    <rect x="903" width="9" height="100"/>
    <rect x="915" width="3" height="100"/>
    <rect x="921" width="6" height="100"/>
</svg>